<svg width="40" height="40" viewBox="0 0 40 40" fill="none" xmlns="http://www.w3.org/2000/svg">
<path d="M32.5616 19.6228L16.0777 37.6205C15.903 37.8105 15.6724 37.9374 15.4207 37.9821C15.169 38.0268 14.9099 37.9869 14.6825 37.8684C14.455 37.7499 14.2715 37.5592 14.1598 37.3251C14.048 37.091 14.0139 36.8262 14.0628 36.5707L16.2204 25.5725L7.73855 22.3269C7.55639 22.2575 7.39394 22.1432 7.26573 21.9941C7.13751 21.8451 7.04752 21.666 7.00379 21.4729C6.96005 21.2798 6.96395 21.0787 7.01511 20.8874C7.06628 20.6962 7.16313 20.5209 7.29701 20.3772L23.781 2.37941C23.9557 2.18944 24.1862 2.06252 24.4379 2.0178C24.6896 1.97309 24.9487 2.013 25.1762 2.13152C25.4037 2.25005 25.5871 2.44075 25.6989 2.67485C25.8107 2.90895 25.8447 3.17374 25.7959 3.42928L23.6323 14.4394L32.1142 17.6805C32.295 17.7504 32.4562 17.8646 32.5834 18.0131C32.7106 18.1615 32.8 18.3396 32.8436 18.5316C32.8873 18.7235 32.8839 18.9235 32.8336 19.1139C32.7834 19.3042 32.688 19.479 32.5558 19.6228H32.5616Z" fill="url(#paint0_linear_11894_81696)"/>
<defs>
<linearGradient id="paint0_linear_11894_81696" x1="12.0242" y1="-13.3659" x2="43.3855" y2="24.281" gradientUnits="userSpaceOnUse">
<stop stop-color="#35C56E"/>
<stop offset="1" stop-color="#2E9155"/>
</linearGradient>
</defs>
</svg>
